<?xml version="1.0" standalone="no"?><!DOCTYPE svg PUBLIC "-//W3C//DTD SVG 1.1//EN" "http://www.w3.org/Graphics/SVG/1.1/DTD/svg11.dtd"><svg t="1713780690861" class="icon" viewBox="0 0 1024 1024" version="1.1" xmlns="http://www.w3.org/2000/svg" p-id="5653" width="128" height="128" xmlns:xlink="http://www.w3.org/1999/xlink"><path d="M665.6 0a51.2 51.2 0 0 1 51.2 51.2v102.4h51.2a102.4 102.4 0 0 1 102.4 102.4v358.4a102.4 102.4 0 0 1-102.4 102.4h-102.4v51.2h153.6a51.2 51.2 0 0 1 51.2 51.2v153.6a51.2 51.2 0 0 1-51.2 51.2H204.8a51.2 51.2 0 0 1-51.2-51.2v-153.6a51.2 51.2 0 0 1 51.2-51.2h153.6v-51.2h-102.4a102.4 102.4 0 0 1-102.4-102.4V256a102.4 102.4 0 0 1 102.4-102.4h76.8V51.2a51.2 51.2 0 0 1 51.2-51.2h281.6z m128 844.8H230.4v102.4h563.2v-102.4z m-179.2 25.6v51.2h-204.8v-51.2h204.8z m-256 0v51.2h-76.8v-51.2h76.8z m384 0v51.2h-76.8v-51.2h76.8z m-179.2-153.6h-102.4v51.2h102.4v-51.2zM51.2 281.6a51.2 51.2 0 0 1 51.2 51.2v153.6a51.2 51.2 0 1 1-102.4 0v-153.6a51.2 51.2 0 0 1 51.2-51.2z m921.6 0a51.2 51.2 0 0 1 51.2 51.2v153.6a51.2 51.2 0 1 1-102.4 0v-153.6a51.2 51.2 0 0 1 51.2-51.2z m-640 51.2a76.8 76.8 0 1 0 0 153.6 76.8 76.8 0 0 0 0-153.6z m358.4 0a76.8 76.8 0 1 0 0 153.6 76.8 76.8 0 0 0 0-153.6zM640 76.8h-230.4v76.8h230.4V76.8z" fill="#003A70" p-id="5654"></path></svg>